<?xml version="1.0" encoding="iso-8859-1"?>
<!-- Uploaded to: SVG Repo, www.svgrepo.com, Generator: SVG Repo Mixer Tools -->
<!DOCTYPE svg PUBLIC "-//W3C//DTD SVG 1.1//EN" "http://www.w3.org/Graphics/SVG/1.1/DTD/svg11.dtd">
<svg fill="#000000" height="800px" width="800px" version="1.1" id="Capa_1" xmlns="http://www.w3.org/2000/svg" xmlns:xlink="http://www.w3.org/1999/xlink" 
	 viewBox="0 0 441.031 441.031" xml:space="preserve">
<g>
	<path d="M220.516,32.839c24.306,0,44.081,19.775,44.081,44.081c0,3.313,2.687,6,6,6c3.313,0,6-2.687,6-6
		c0-30.923-25.158-56.081-56.081-56.081c-3.313,0-6,2.687-6,6C214.516,30.152,217.202,32.839,220.516,32.839z"/>
	<path d="M301.008,208.363c-1.127-1.571-2.942-2.504-4.876-2.504h-2.931c2.74-7.885,4.234-16.348,4.234-25.154
		c0-19.994-7.673-38.227-20.222-51.919c12.536-13.688,20.222-31.886,20.222-51.866c0-42.414-34.506-76.92-76.919-76.92
		s-76.919,34.506-76.919,76.92c0,19.98,7.682,38.183,20.218,51.87c-12.547,13.692-20.218,31.923-20.218,51.915
		c0,8.805,1.493,17.266,4.232,25.149h-2.929c-1.934,0-3.749,0.933-4.876,2.504c-1.127,1.571-1.427,3.59-0.807,5.422l75.616,223.177
		c0.825,2.436,3.111,4.074,5.683,4.074c2.572,0,4.857-1.639,5.683-4.074l75.616-223.172
		C302.435,211.953,302.135,209.934,301.008,208.363z M287.764,217.859l-1.429,4.217l-9.883-4.217H287.764z M281.182,237.286
		l-36.978,15.776l-42.089-17.957l40.425-17.248h3.393c0.134,0.07,36.541,15.617,36.541,15.617L281.182,237.286z M186.827,228.582
		l-25.141-10.727l50.279,0.002L186.827,228.582z M171.538,235.105l-10.856,4.632l-3.669-10.829L171.538,235.105z M186.827,241.628
		l42.089,17.958l-42.089,17.958l-15.588-6.651l-6.694-19.758L186.827,241.628z M186.826,290.59l42.089,17.959l-39.246,16.744
		l-10.632-31.38L186.826,290.59z M228.915,357.511l-24.752,10.561l-8.365-24.69L228.915,357.511z M242.852,350.411l-40.738-17.381
		l42.09-17.958l9.28,3.959L242.852,350.411z M261.789,294.523l-17.584,7.502l-42.089-17.958l42.089-17.958l23.775,10.143
		L261.789,294.523z M271.841,264.854l-12.348-5.269l16.522-7.049L271.841,264.854z M220.516,12c35.797,0,64.919,29.123,64.919,64.92
		c0,16.82-6.44,32.158-16.972,43.703c-13.16-10.523-29.826-16.838-47.948-16.838c-18.117,0-34.779,6.311-47.937,16.83
		c-10.533-11.544-16.982-26.874-16.982-43.695C155.596,41.123,184.719,12,220.516,12z M155.596,180.705
		c0-35.797,29.122-64.92,64.919-64.92s64.919,29.123,64.919,64.92c0,8.918-1.817,17.414-5.088,25.154l-119.665-0.004
		C157.413,198.117,155.596,189.621,155.596,180.705z M220.516,416.334l-12.49-36.863l29.202-12.46L220.516,416.334z"/>
</g>
</svg>